<?xml version="1.0" encoding="utf-8"?>
<!-- Generator: Adobe Illustrator 26.2.1, SVG Export Plug-In . SVG Version: 6.00 Build 0)  -->
<svg version="1.1" id="Layer_1" xmlns="http://www.w3.org/2000/svg" xmlns:xlink="http://www.w3.org/1999/xlink" x="0px" y="0px"
	 viewBox="0 0 120 33" style="enable-background:new 0 0 120 33;" xml:space="preserve">
<style type="text/css">
	.st0{fill:url(#SVGID_1_);}
	.st1{fill:url(#SVGID_00000147917343899389478400000005051950732668818851_);}
	.st2{fill:url(#SVGID_00000137123058703405188270000010738637143493958842_);}
	.st3{fill:url(#SVGID_00000137842214102344375600000017093738494386609294_);}
	.st4{fill:url(#SVGID_00000162334013739344247720000003645094556674508169_);}
	.st5{fill:url(#SVGID_00000156552084222649739180000000409476566046144421_);}
	.st6{fill:url(#SVGID_00000144303606959649331000000012018022067227528323_);}
	.st7{fill:url(#SVGID_00000127739894337250985450000015597751894961199758_);}
	.st8{fill:url(#SVGID_00000062881186690961962960000012753718040496370820_);}
</style>
<g>
	<g>
		
			<linearGradient id="SVGID_1_" gradientUnits="userSpaceOnUse" x1="74.7" y1="29.2698" x2="74.7" y2="6.8144" gradientTransform="matrix(1 0 0 -1 0 34)">
			<stop  offset="0" style="stop-color:#D3EAED"/>
			<stop  offset="0.3" style="stop-color:#E2CDF7"/>
			<stop  offset="1" style="stop-color:#86A2DB"/>
		</linearGradient>
		<path class="st0" d="M80,21.6l-4.9-11h-0.6l-4.9,11c-0.1,0.2-0.2,0.4-0.3,0.6l-0.1,0.1h1.5v-0.1c0-0.2,0-0.4,0.1-0.7l0.9-2.1h6.1
			l0.9,2.1c0.1,0.3,0.1,0.5,0.1,0.8v0.1h1.4l-0.1-0.1C80.2,22,80.1,21.8,80,21.6z M72.2,18.4l2.6-6l2.6,6H72.2z"/>
		
			<linearGradient id="SVGID_00000168100589115265488030000003169029163480091830_" gradientUnits="userSpaceOnUse" x1="53.45" y1="29.2698" x2="53.45" y2="6.8144" gradientTransform="matrix(1 0 0 -1 0 34)">
			<stop  offset="0" style="stop-color:#D3EAED"/>
			<stop  offset="0.3" style="stop-color:#E2CDF7"/>
			<stop  offset="1" style="stop-color:#86A2DB"/>
		</linearGradient>
		<path style="fill:url(#SVGID_00000168100589115265488030000003169029163480091830_);" d="M56.3,21.3h-5.2v-3.2l0,0v-0.4v-0.4l0,0
			V17h4h0.1h0.2v-1.1h-0.1c-0.1,0-0.1,0-0.2,0h-4v-4.3h4.5c0.4,0,0.7,0.1,1,0.2h0.1l0.2-1.2h-6l0,0h-1v0.1c0,0.1,0.1,0.2,0.1,0.4
			v10.7c0,0.1-0.1,0.2-0.1,0.4v0.1h1l0,0h5.9l0.2-1.1h-0.1C56.7,21.3,56.5,21.3,56.3,21.3z"/>
		
			<linearGradient id="SVGID_00000081622394886174383230000016484974226393245352_" gradientUnits="userSpaceOnUse" x1="40.1" y1="29.2698" x2="40.1" y2="6.8144" gradientTransform="matrix(1 0 0 -1 0 34)">
			<stop  offset="0" style="stop-color:#D3EAED"/>
			<stop  offset="0.3" style="stop-color:#E2CDF7"/>
			<stop  offset="1" style="stop-color:#86A2DB"/>
		</linearGradient>
		<path style="fill:url(#SVGID_00000081622394886174383230000016484974226393245352_);" d="M40.7,21.9v-3.7l0,0v-0.4v-0.4l0,0v-6.2
			c0-0.1,0.1-0.2,0.1-0.4v-0.1h-1.4v0.1c0,0.1,0.1,0.2,0.1,0.4v10.7c0,0.1-0.1,0.2-0.1,0.4v0.1h1.4v-0.1
			C40.8,22.1,40.7,22,40.7,21.9z"/>
		
			<linearGradient id="SVGID_00000109015605206997186670000014137226658692425382_" gradientUnits="userSpaceOnUse" x1="45.1" y1="29.2698" x2="45.1" y2="6.8144" gradientTransform="matrix(1 0 0 -1 0 34)">
			<stop  offset="0" style="stop-color:#D3EAED"/>
			<stop  offset="0.3" style="stop-color:#E2CDF7"/>
			<stop  offset="1" style="stop-color:#86A2DB"/>
		</linearGradient>
		<path style="fill:url(#SVGID_00000109015605206997186670000014137226658692425382_);" d="M48.2,22L43,16.4l4.8-5.5l0.3-0.2h-1.6
			l0,0c0,0.1-0.1,0.2-0.2,0.3l-4.7,5.3l4.8,5.2c0.2,0.2,0.4,0.4,0.5,0.6v0.1h0.2h1.4l0,0h0.1L48.2,22z"/>
		
			<linearGradient id="SVGID_00000007386986193554934340000006880382427329163955_" gradientUnits="userSpaceOnUse" x1="63.75" y1="29.2698" x2="63.75" y2="6.8144" gradientTransform="matrix(1 0 0 -1 0 34)">
			<stop  offset="0" style="stop-color:#D3EAED"/>
			<stop  offset="0.3" style="stop-color:#E2CDF7"/>
			<stop  offset="1" style="stop-color:#86A2DB"/>
		</linearGradient>
		<path style="fill:url(#SVGID_00000007386986193554934340000006880382427329163955_);" d="M68,21.9l-2.5-3.7l0,0l-0.3-0.4L65,17.4
			l0,0L64.8,17c1.6-0.1,2.9-1.5,2.9-3.2s-1.4-3.2-3.2-3.2l0,0h-4.9l0,0h-0.5v0.1c0,0.1,0.1,0.2,0.1,0.4v10.7c0,0.1-0.1,0.2-0.1,0.4
			v0.1h1.4v-0.1c0-0.1-0.1-0.2-0.1-0.4v-3.7l0,0v-0.4v-0.4l0,0V17h3.1l3.2,4.8c0.1,0.1,0.1,0.2,0.1,0.4v0.1h1.6l-0.1-0.1
			C68.2,22.1,68.1,22,68,21.9z M60.5,11.7h4.1l0,0c1.2,0,2.2,1,2.2,2.2s-1,2.2-2.2,2.2l0,0h-4.1V11.7z"/>
		
			<linearGradient id="SVGID_00000062905199101299500160000000688243649010432415_" gradientUnits="userSpaceOnUse" x1="86.9" y1="29.2698" x2="86.9" y2="6.8144" gradientTransform="matrix(1 0 0 -1 0 34)">
			<stop  offset="0" style="stop-color:#D3EAED"/>
			<stop  offset="0.3" style="stop-color:#E2CDF7"/>
			<stop  offset="1" style="stop-color:#86A2DB"/>
		</linearGradient>
		<path style="fill:url(#SVGID_00000062905199101299500160000000688243649010432415_);" d="M92,10.8v-0.1h-0.1l0,0h-1.3l-3.7,6.6
			l-3.7-6.6h-1.3l0,0h-0.1v0.1c0,0.1,0.1,0.2,0.1,0.4v10.7c0,0.1-0.1,0.2-0.1,0.4v0.1h0.1l0,0h1.3l0,0l0,0v-0.1
			c0-0.1-0.1-0.2-0.1-0.4v-3.7l0,0v-0.4v-0.4l0,0v-4.6l3.8,6.6l0,0l0,0l0,0l3.8-6.6v4.6l0,0v0.4v0.4l0,0v3.7c0,0.1-0.1,0.2-0.1,0.4
			v0.1l0,0l0,0h1.3l0,0H92v-0.1c0-0.1-0.1-0.2-0.1-0.4V11.2C91.9,11,91.9,10.9,92,10.8z"/>
		
			<linearGradient id="SVGID_00000123405532382214345300000015352555179185622182_" gradientUnits="userSpaceOnUse" x1="110.107" y1="29.2698" x2="110.107" y2="6.8144" gradientTransform="matrix(1 0 0 -1 0 34)">
			<stop  offset="0" style="stop-color:#D3EAED"/>
			<stop  offset="0.3" style="stop-color:#E2CDF7"/>
			<stop  offset="1" style="stop-color:#86A2DB"/>
		</linearGradient>
		<path style="fill:url(#SVGID_00000123405532382214345300000015352555179185622182_);" d="M113.2,17.2c-0.6-0.5-1.5-0.9-2.4-1.2
			c-1.6-0.6-2.8-1.1-2.8-2.5c0-0.5,0.3-1,0.7-1.4c0.6-0.5,1.3-0.6,2.2-0.5c0,0,0.7,0,1.5,0.4h0.1h0.1l0,0h0.1l0.8-0.8
			c-0.3-0.2-0.7-0.3-1.1-0.5c-0.2-0.1-0.3-0.1-0.5-0.1c0,0,0,0-0.1,0l0,0c-0.1,0-0.2,0-0.3-0.1c-0.3-0.1-0.7-0.1-1-0.1
			c-1.1,0-2,0.3-2.7,0.8c-0.7,0.6-1.1,1.4-1.1,2.2c0,2.1,2,2.9,3.6,3.5c1,0.4,1.6,0.7,2,1c0.5,0.4,0.7,0.9,0.6,1.5s-0.5,1.2-1.2,1.5
			c-0.4,0.2-0.9,0.3-1.4,0.3s-2-0.3-3.4-1.3l-0.8,0.8c0.5,0.4,1.1,0.7,1.8,1l0,0l0,0l0,0c0.1,0,0.2,0.1,0.2,0.1
			c0.5,0.2,1.3,0.4,2.1,0.4l0,0c0.7,0,1.4-0.2,2-0.5c1-0.5,1.6-1.3,1.8-2.3C114.3,18.6,114,17.8,113.2,17.2z"/>
		
			<linearGradient id="SVGID_00000117651262013974872140000009204558596857570189_" gradientUnits="userSpaceOnUse" x1="99.5" y1="29.2698" x2="99.5" y2="6.8144" gradientTransform="matrix(1 0 0 -1 0 34)">
			<stop  offset="0" style="stop-color:#D3EAED"/>
			<stop  offset="0.3" style="stop-color:#E2CDF7"/>
			<stop  offset="1" style="stop-color:#86A2DB"/>
		</linearGradient>
		<path style="fill:url(#SVGID_00000117651262013974872140000009204558596857570189_);" d="M99.5,10.5c-3.1,0-5.7,2.7-5.7,6
			s2.6,6,5.7,6s5.7-2.7,5.7-6c0-1.6-0.6-3.1-1.7-4.2C102.5,11.1,101.1,10.5,99.5,10.5z M99.5,21.4c-2.6,0-4.7-2.2-4.7-4.9
			c0-2.8,2-4.9,4.7-4.9c2.6,0,4.6,2.2,4.6,4.9C104.2,19.3,102.1,21.4,99.5,21.4z"/>
	</g>
	
		<linearGradient id="SVGID_00000047034828041012211360000001561019936868330918_" gradientUnits="userSpaceOnUse" x1="16.5" y1="34.3653" x2="16.5" y2="0.9326" gradientTransform="matrix(1 0 0 -1 0 34)">
		<stop  offset="0" style="stop-color:#D3EAED"/>
		<stop  offset="0.3" style="stop-color:#E2CDF7"/>
		<stop  offset="1" style="stop-color:#86A2DB"/>
	</linearGradient>
	<path style="fill:url(#SVGID_00000047034828041012211360000001561019936868330918_);" d="M24.5,2.1c-2.4-1.3-5.1-2.1-8-2.1l0,0
		c0.4,0.5,0.8,1,1.3,1.4c1.7,0.1,3.4,0.6,4.9,1.3c1.7,0.7,3.2,1.8,4.5,3.1c2.9,2.9,4.4,6.7,4.4,10.7c0,3.8-1.4,7.3-3.8,10.1
		L17.7,16.5l5.2-5.2c-0.4-0.5-0.8-0.9-1.2-1.2l-6.4,6.4l11.3,11.3c-2.8,2.5-6.3,3.8-10.1,3.8c-4.1,0-7.9-1.6-10.7-4.4
		c-2.9-2.9-4.4-6.7-4.4-10.7c0-4.1,1.6-7.9,4.4-10.7C7.5,4,9.7,2.7,12,2v21.4c0.5,0.4,1.1,0.7,1.8,0.9V1.6V0.2
		c-0.6,0.1-1.2,0.2-1.8,0.4C5.1,2.6,0,9,0,16.5C0,25.6,7.4,33,16.5,33S33,25.6,33,16.5C33,10.3,29.6,4.9,24.5,2.1z"/>
</g>
</svg>
