<?xml version="1.0" encoding="UTF-8"?><svg id="Layer_6" xmlns="http://www.w3.org/2000/svg" xmlns:xlink="http://www.w3.org/1999/xlink" viewBox="0 0 36 36"><defs><linearGradient id="New_Gradient_Swatch_copy_3" x1="18" y1="0" x2="18" y2="36" gradientTransform="matrix(1, 0, 0, 1, 0, 0)" gradientUnits="userSpaceOnUse"><stop offset="0" stop-color="#89d3bb"/><stop offset=".3" stop-color="#e2b4ff"/><stop offset="1" stop-color="#7d80ce"/></linearGradient><linearGradient id="New_Gradient_Swatch_copy_3-2" x1="9.62" y1=".09" x2="9.62" y2="36.01" xlink:href="#New_Gradient_Swatch_copy_3"/><linearGradient id="New_Gradient_Swatch_copy_3-3" x1="21.59" y1=".09" x2="21.59" y2="36.01" xlink:href="#New_Gradient_Swatch_copy_3"/><linearGradient id="New_Gradient_Swatch_copy_3-4" x1="9.62" y1=".09" x2="9.62" y2="36.01" xlink:href="#New_Gradient_Swatch_copy_3"/></defs><g><rect width="36" height="36" rx="6" ry="6" fill="#09090a"/><path d="M30,1c2.76,0,5,2.24,5,5V30c0,2.76-2.24,5-5,5H6c-2.76,0-5-2.24-5-5V6C1,3.24,3.24,1,6,1H30M30,0H6C2.69,0,0,2.69,0,6V30C0,33.31,2.69,36,6,36H30c3.31,0,6-2.69,6-6V6C36,2.69,33.31,0,30,0h0Z" fill="url(#New_Gradient_Swatch_copy_3)"/></g><g><rect x="7.36" y="13.28" width="4.52" height="14.4" fill="url(#New_Gradient_Swatch_copy_3-2)"/><path d="M24.08,12.96c-.17-.02-.34-.03-.52-.04-2.53-.1-3.96,1.4-4.45,2.04-.13,.17-.2,.28-.2,.28v-1.93h-4.32v14.4h4.52v-6.77c0-.98-.08-2.02,.41-2.91,.41-.75,1.16-1.13,2.01-1.13,2.49,0,2.55,2.26,2.55,2.47v8.39h4.52v-9.39c0-3.21-1.63-5.11-4.52-5.43Z" fill="url(#New_Gradient_Swatch_copy_3-3)"/><circle cx="9.62" cy="8.8" r="2.62" fill="url(#New_Gradient_Swatch_copy_3-4)"/></g></svg>