<?xml version="1.0" encoding="utf-8"?>
<!-- Generator: Adobe Illustrator 26.3.1, SVG Export Plug-In . SVG Version: 6.00 Build 0)  -->
<svg version="1.1" id="Layer_6" xmlns="http://www.w3.org/2000/svg" xmlns:xlink="http://www.w3.org/1999/xlink" x="0px" y="0px"
	 viewBox="0 0 36 36" style="enable-background:new 0 0 36 36;" xml:space="preserve">
<style type="text/css">
	.st0{fill:url(#SVGID_1_);}
	.st1{fill:url(#SVGID_00000067951315764411798190000000949553904792142473_);}
</style>
<g>
	
		<linearGradient id="SVGID_1_" gradientUnits="userSpaceOnUse" x1="18" y1="38" x2="18" y2="2" gradientTransform="matrix(1 0 0 -1 0 38)">
		<stop  offset="0" style="stop-color:#89D3BB"/>
		<stop  offset="0.3" style="stop-color:#E2B4FF"/>
		<stop  offset="1" style="stop-color:#7D80CE"/>
	</linearGradient>
	<path class="st0" d="M30,1c2.8,0,5,2.2,5,5v24c0,2.8-2.2,5-5,5H6c-2.8,0-5-2.2-5-5V6c0-2.8,2.2-5,5-5H30 M30,0H6C2.7,0,0,2.7,0,6
		v24c0,3.3,2.7,6,6,6h24c3.3,0,6-2.7,6-6V6C36,2.7,33.3,0,30,0L30,0z"/>
</g>
<linearGradient id="SVGID_00000016047360756563926260000018118033949262216118_" gradientUnits="userSpaceOnUse" x1="18.38" y1="38.06" x2="18.38" y2="1.75" gradientTransform="matrix(1 0 0 -1 0 38)">
	<stop  offset="0" style="stop-color:#89D3BB"/>
	<stop  offset="0.3" style="stop-color:#E2B4FF"/>
	<stop  offset="1" style="stop-color:#7D80CE"/>
</linearGradient>
<path style="fill:url(#SVGID_00000016047360756563926260000018118033949262216118_);" d="M7.6,24.7c2.3,0.1,4.4-0.4,6.3-1.9
	c-2-0.3-3.4-1.2-4.1-3.2c0.6-0.1,1.1,0.1,1.7-0.2c-2-0.9-3.2-2.2-3.3-4.4c0.6,0.1,1.1,0.5,1.8,0.4c-1.8-1.8-2.4-3.7-1.2-6.1
	c1.9,2.2,4.1,3.7,6.8,4.3c0.1,0,0.3,0.1,0.4,0.1c0.7,0.2,1.5,0.5,2,0.4c0.7-0.1,0-0.9,0.2-2c0.6-3.4,4.3-4.9,7.1-2.9
	C26,10,26.7,10,27.5,9.7c0.4-0.2,0.8-0.4,1.3-0.6c-0.1,1-0.9,1.5-1.5,2.2c0.7,0.1,1.2,0,1.8-0.2c-0.2,0.7-0.7,1.1-1.2,1.5
	c-0.5,0.4-0.7,0.8-0.7,1.4c-0.3,9.8-11.4,17.3-19,11.3C7.6,24.7,8.3,25.3,7.6,24.7z"/>
</svg>
