<?xml version="1.0" encoding="utf-8"?>
<!-- Generator: Adobe Illustrator 26.3.1, SVG Export Plug-In . SVG Version: 6.00 Build 0)  -->
<svg version="1.1" id="Layer_6" xmlns="http://www.w3.org/2000/svg" xmlns:xlink="http://www.w3.org/1999/xlink" x="0px" y="0px"
	 viewBox="0 0 24 24" style="enable-background:new 0 0 24 24;" xml:space="preserve">
<style type="text/css">
	.st0{fill:url(#SVGID_1_);}
</style>
<linearGradient id="SVGID_1_" gradientUnits="userSpaceOnUse" x1="12.38" y1="32.06" x2="12.38" y2="-4.25" gradientTransform="matrix(1 0 0 -1 0 26)">
	<stop  offset="0" style="stop-color:#89D3BB"/>
	<stop  offset="0.3" style="stop-color:#E2B4FF"/>
	<stop  offset="1" style="stop-color:#7D80CE"/>
</linearGradient>
<path class="st0" d="M1.6,18.7c2.3,0.1,4.4-0.4,6.3-1.9c-2-0.3-3.4-1.2-4.1-3.2c0.6-0.1,1.1,0.1,1.7-0.2c-2-0.9-3.2-2.2-3.3-4.4
	C2.8,9.2,3.3,9.6,4,9.5C2.2,7.8,1.6,5.8,2.8,3.5c1.9,2.2,4.1,3.7,6.8,4.3c0.1,0,0.3,0.1,0.4,0.1c0.7,0.2,1.5,0.5,2,0.4
	c0.7-0.1,0-0.9,0.2-2c0.6-3.4,4.3-4.9,7.1-2.9C20,4,20.7,4,21.5,3.7c0.4-0.2,0.8-0.4,1.3-0.6c-0.1,1-0.9,1.5-1.5,2.2
	c0.7,0.1,1.2,0,1.8-0.2C23,5.8,22.5,6.2,22,6.5c-0.5,0.4-0.7,0.8-0.7,1.4C21,17.7,9.9,25.3,2.3,19.3C1.6,18.7,2.3,19.3,1.6,18.7z"/>
</svg>
