<?xml version="1.0" encoding="UTF-8"?><svg id="Layer_6" xmlns="http://www.w3.org/2000/svg" xmlns:xlink="http://www.w3.org/1999/xlink" viewBox="0 0 36 36"><defs><linearGradient id="New_Gradient_Swatch_copy_3" x1="18" y1="0" x2="18" y2="36" gradientTransform="matrix(1, 0, 0, 1, 0, 0)" gradientUnits="userSpaceOnUse"><stop offset="0" stop-color="#89d3bb"/><stop offset=".3" stop-color="#e2b4ff"/><stop offset="1" stop-color="#7d80ce"/></linearGradient><linearGradient id="New_Gradient_Swatch_copy_3-2" x1="18.38" y1="-.06" x2="18.38" y2="36.25" xlink:href="#New_Gradient_Swatch_copy_3"/></defs><g><rect width="36" height="36" rx="6" ry="6" fill="#09090a"/><path d="M30,1c2.76,0,5,2.24,5,5V30c0,2.76-2.24,5-5,5H6c-2.76,0-5-2.24-5-5V6C1,3.24,3.24,1,6,1H30M30,0H6C2.69,0,0,2.69,0,6V30C0,33.31,2.69,36,6,36H30c3.31,0,6-2.69,6-6V6C36,2.69,33.31,0,30,0h0Z" fill="url(#New_Gradient_Swatch_copy_3)"/></g><path d="M7.58,24.72c2.33,.14,4.36-.42,6.34-1.86-2-.34-3.39-1.25-4.15-3.16,.58-.08,1.1,.07,1.7-.17-1.97-.86-3.25-2.16-3.3-4.41,.62,.05,1.09,.46,1.84,.41-1.82-1.77-2.37-3.7-1.23-6.05,1.89,2.18,4.11,3.65,6.81,4.35,.15,.04,.29,.08,.44,.11,.7,.16,1.52,.51,1.95,.45,.73-.09,0-.93,.19-2.01,.58-3.38,4.3-4.92,7.06-2.94,.81,.58,1.44,.57,2.23,.22,.42-.18,.84-.36,1.33-.57-.11,.97-.85,1.5-1.45,2.22,.68,.15,1.22-.04,1.84-.24-.21,.7-.73,1.09-1.21,1.47-.49,.39-.68,.8-.7,1.45-.3,9.75-11.39,17.3-18.97,11.3-.73-.58-.02,0-.72-.57Z" fill="url(#New_Gradient_Swatch_copy_3-2)"/></svg>